<svg width="286" height="286" viewBox="0 0 286 286" fill="none" xmlns="http://www.w3.org/2000/svg">
<path d="M286 143C286 221.977 221.977 286 143 286C64.0233 286 0 221.977 0 143C0 64.0233 64.0233 0 143 0C221.977 0 286 64.0233 286 143Z" fill="#87C10B"/>
<path d="M120.057 171.66C117.677 164.94 116.487 159.48 116.487 155.28C116.487 148.28 118.517 142.89 122.577 139.11C126.777 135.33 132.447 131.76 139.587 128.4C143.647 126.44 146.447 124.9 147.987 123.78C149.527 122.66 150.297 121.33 150.297 119.79C150.297 115.31 144.767 113.07 133.707 113.07C123.907 113.07 114.807 114.89 106.407 118.53L103.467 86.61C110.047 83.67 117.117 81.43 124.677 79.89C132.237 78.21 139.237 77.37 145.677 77.37C155.617 77.37 164.437 79.05 172.137 82.41C179.837 85.63 185.787 90.25 189.987 96.27C194.327 102.15 196.497 108.87 196.497 116.43C196.497 123.15 195.097 128.75 192.297 133.23C189.497 137.57 186.207 141 182.427 143.52C178.647 145.9 173.677 148.42 167.517 151.08C161.217 153.88 156.597 156.4 153.657 158.64C150.857 160.88 149.457 163.89 149.457 167.67V171.66H120.057ZM134.547 226.26C127.407 226.26 121.667 224.3 117.327 220.38C112.987 216.46 110.817 211.28 110.817 204.84C110.817 198.54 112.987 193.43 117.327 189.51C121.807 185.59 127.547 183.63 134.547 183.63C141.267 183.63 146.867 185.66 151.347 189.72C155.827 193.78 158.067 198.82 158.067 204.84C158.067 211.56 155.967 216.81 151.767 220.59C147.707 224.37 141.967 226.26 134.547 226.26Z" fill="white"/>
</svg>
